<?xml version="1.0" encoding="utf-8"?><!-- Uploaded to: SVG Repo, www.svgrepo.com, Generator: SVG Repo Mixer Tools -->
<svg fill="#000000" width="800px" height="800px" viewBox="0 0 24 24" id="pound" data-name="Flat Color" xmlns="http://www.w3.org/2000/svg" class="icon flat-color"><path id="primary" d="M16,20H6.69a11.05,11.05,0,0,0,1.38-7H12a1,1,0,0,0,0-2H7.59l-.06-.18A10,10,0,0,1,7,8c0-2.8,1.2-4,4-4a4.31,4.31,0,0,1,4,3.24A1,1,0,1,0,17,6.76,6.25,6.25,0,0,0,11,2C7.13,2,5,4.13,5,8a10.34,10.34,0,0,0,.51,3H4a1,1,0,0,0,0,2H6c.36,1.81.23,3.91-1.89,7.49A1,1,0,0,0,5,22H16a1,1,0,0,0,0-2Z" style="fill: rgb(0, 0, 0);"></path></svg>